<svg id="Layer_1" data-name="Layer 1" xmlns="http://www.w3.org/2000/svg" viewBox="0 0 299.4 285.1"><defs><style>.cls-1{fill:#fff;}.cls-2{fill:#231f20;}.cls-3{fill:none;stroke:#231f20;stroke-miterlimit:10;stroke-width:0.75px;}</style></defs><title>logo</title><rect class="cls-1" x="0.4" y="142.6" width="298.6" height="142.2"/><rect class="cls-2" x="0.4" y="0.4" width="298.6" height="142.2"/><path class="cls-2" d="M357.3,397.2c-.5,8.3-1.2,16.4-2.2,24.5a108.9,108.9,0,0,1-5.6,23,85.5,85.5,0,0,1-11.1,21.1A82.3,82.3,0,0,1,320,484.2a87.6,87.6,0,0,1-9.7,6,75.8,75.8,0,0,1-12.5,5.3,102.3,102.3,0,0,1-15.2,3.8,99,99,0,0,1-17.7,1.5,69.4,69.4,0,0,1-25.9-4.6,92.2,92.2,0,0,1-21.7-12c11.5-6.8,20.1-15.3,26-25.2a65.4,65.4,0,0,0,9.2-32c0-6.8-1.9-12.6-5.8-17.3s-9.7-7.2-17.2-7.6a24.7,24.7,0,0,0-14.2,4.2A36.7,36.7,0,0,0,205,417.1a51.2,51.2,0,0,0-6.4,14.5,57.7,57.7,0,0,0-2.2,15.7,54.1,54.1,0,0,0,3.5,19A53.1,53.1,0,0,0,211,483.6a59.8,59.8,0,0,1-11.9,4.4,56.6,56.6,0,0,1-14,1.6,30.9,30.9,0,0,1-6.6-.7,33.5,33.5,0,0,0-7.1-.7,1.6,1.6,0,0,0-1.3.6,1.7,1.7,0,0,0-.5,1.3c0,.8.6,1.4,1.8,1.9a26.3,26.3,0,0,0,4.4.9l5.2.4h4.1a66.5,66.5,0,0,0,14.9-1.8,45.8,45.8,0,0,0,14-5.3l3.1,2.7a74.1,74.1,0,0,0,22,11.4,79.2,79.2,0,0,0,25.8,4.1c13,0,24.3-1.8,34.1-5.3s17.6-7.5,23.3-11.6a88.9,88.9,0,0,0,19.3-19.5,99.9,99.9,0,0,0,11.5-21.9,111.8,111.8,0,0,0,5.8-23.8,229.9,229.9,0,0,0,2.2-25c.2-3,.2-6,.3-9h-3.7C357.5,391.3,357.4,394.3,357.3,397.2ZM214.4,481.7a45.5,45.5,0,0,1-10.7-16,51,51,0,0,1-3.3-18.2,60,60,0,0,1,6.2-26.4,34.5,34.5,0,0,1,9-10.3c3.7-2.8,8.3-4.4,13.9-5a17.5,17.5,0,0,1,13.9,6.1,22.5,22.5,0,0,1,5.1,14.9,52.5,52.5,0,0,1-2.5,16.1,60.6,60.6,0,0,1-7.1,15A79.2,79.2,0,0,1,228.1,471,75.3,75.3,0,0,1,214.4,481.7Z" transform="translate(-154.7 -246.4)"/><path class="cls-1" d="M430.1,275.6c-4.3-3.6-9.7-5.5-16.3-5.8a36.2,36.2,0,0,0-22.7,7.4,62.4,62.4,0,0,0-15.9,18.6,101.4,101.4,0,0,0-10,23.9,159.5,159.5,0,0,0-4.8,23.6,61.6,61.6,0,0,1-16.9-2.2,40.1,40.1,0,0,1-13.9-6.8,1.6,1.6,0,0,0-1.2-.4,2,2,0,0,0-1.3.4,1.5,1.5,0,0,0-.6,1.3,1.7,1.7,0,0,0,.8,1.6,46,46,0,0,0,15,7.5,63.1,63.1,0,0,0,17.7,2.4c-1,8.4-1.6,16.8-1.8,25.3-.1,5.6-.3,11.1-.5,16.5h3.7c.2-5.5.4-10.9.6-16.5.2-8.5.8-16.9,1.8-25.3a110.5,110.5,0,0,0,17.7-2.4,85,85,0,0,0,16.8-5.6,78.7,78.7,0,0,0,12.8-7.4,75.1,75.1,0,0,0,12.4-10.9,62.4,62.4,0,0,0,9.3-13.5,34.5,34.5,0,0,0,3.7-15.3C436.5,284.6,434.3,279.1,430.1,275.6Zm-4.3,36.6a63.7,63.7,0,0,1-16.6,16.1A83.8,83.8,0,0,1,387.1,339a85.9,85.9,0,0,1-22.9,4.3c.7-5.7,1.7-11.3,2.9-16.7a116.5,116.5,0,0,1,5-16.2,122.6,122.6,0,0,1,6.5-13.1,67.4,67.4,0,0,1,8.9-11.6,44.4,44.4,0,0,1,11.7-8.5,36.1,36.1,0,0,1,14.6-3.6,24.8,24.8,0,0,1,6.5.9,15.4,15.4,0,0,1,6,3,16.4,16.4,0,0,1,4.3,5.6,19.5,19.5,0,0,1,1.7,8.5A35.5,35.5,0,0,1,425.8,312.2Z" transform="translate(-154.7 -246.4)"/><rect class="cls-3" x="0.4" y="0.4" width="298.6" height="284.39"/></svg>